<svg xmlns="http://www.w3.org/2000/svg" width="53" height="50" viewBox="0 0 53 50">
  <path fill="#FFF" d="M47.5862069,50 L39.1133005,50 L39.7044335,42.8571429 L35.5418719,42.8571429 L34.9507389,50 L17.3891626,50 L16.7980296,42.8571429 L12.635468,42.8571429 L13.226601,50 L4.75369458,50 L0,19.0394089 L11.8965517,0 L40.4433498,0 L52.3399015,19.0394089 L47.5862069,50 Z M38.0541872,9.5320197 L30.4187192,9.5320197 L30.9359606,13.1034483 L21.4039409,13.1034483 L21.9211823,9.5320197 L14.2857143,9.5320197 L9.50738916,19.0394089 L11.8965517,38.0788177 L40.4433498,38.0788177 L42.8325123,19.0394089 L38.0541872,9.5320197 Z M33.8916256,31.773399 C33.226601,31.773399 32.7093596,29.8029557 32.7093596,27.3399015 C32.7093596,24.8768473 33.2512315,22.9064039 33.8916256,22.9064039 C34.5566502,22.9064039 35.0738916,24.8768473 35.0738916,27.3399015 C35.0738916,29.8029557 34.5566502,31.773399 33.8916256,31.773399 Z M18.8916256,32.1428571 C18.226601,32.1428571 17.7093596,30.1724138 17.7093596,27.7093596 C17.7093596,25.2463054 18.2512315,23.2758621 18.8916256,23.2758621 C19.5566502,23.2758621 20.0738916,25.2463054 20.0738916,27.7093596 C20.0738916,30.1724138 19.5320197,32.1428571 18.8916256,32.1428571 Z"/>
</svg>
