<svg xmlns="http://www.w3.org/2000/svg" width="46" height="50" viewBox="0 0 46 50">
  <g fill="#FFF" transform="translate(.232 .132)">
    <path d="M16.26709,10.8502718 C9.80877563,9.67399702 4.70244235,10.9051268 2.66730029,14.4300962 C1.14863171,17.0605074 1.5827308,20.5479943 3.72007728,24.2759036 C3.90199702,24.5932037 4.30669467,24.7029512 4.62399477,24.5210315 C4.94129487,24.3391118 5.05104235,23.9344141 4.86912262,23.617114 C2.94377645,20.2589706 2.56913221,17.249135 3.81435381,15.0923479 C5.504955,12.1641407 10.0597158,11.0659943 16.029758,12.1533384 C16.3895899,12.2188758 16.7344199,11.9803029 16.7999573,11.620471 C16.8654947,11.2606391 16.6269219,10.9158092 16.26709,10.8502718 Z M7.07861563,28.8071517 C9.68999775,31.6768672 13.0826192,34.3685159 16.9517131,36.6023384 C26.3201118,42.0111858 36.2934338,43.4569053 41.2087007,40.105396 C41.5108891,39.8993467 41.5888252,39.4873387 41.3827762,39.1851503 C41.1767268,38.8829619 40.7647185,38.8050255 40.4625301,39.0110748 C36.0634245,42.0106361 26.5894906,40.6373073 17.6139648,35.4552848 C13.8605087,33.2882262 10.5753367,30.6818258 8.05823533,27.9157179 C7.81207268,27.6452034 7.39322308,27.6254623 7.12270858,27.871625 C6.85219407,28.1177876 6.83245298,28.5366372 7.07861563,28.8071517 Z"/>
    <path d="M39.6407377,28.0015087 C43.8694858,23.0059033 45.3460182,17.9814478 43.3150669,14.4637368 C41.8206546,11.8753386 38.6614245,10.508773 34.4628576,10.4541703 C34.0971371,10.4494141 33.7968063,10.7420335 33.79205,11.107754 C33.7872937,11.4734746 34.0799132,11.7738054 34.4456338,11.7785616 C38.2217152,11.8276699 40.943457,13.0049943 42.1680132,15.1259884 C43.8549613,18.0478679 42.5382228,22.528564 38.6297993,27.145756 C38.3934897,27.4249189 38.4282291,27.8427919 38.7073921,28.0791015 C38.986555,28.3154111 39.4044281,28.2806716 39.6407377,28.0015087 Z M28.7729049,11.0707934 C24.9494197,11.8899918 20.8796646,13.4916898 16.9711355,15.7482801 C7.30003301,21.3318937 0.991353487,29.5651322 1.86752366,35.5349762 C1.92063458,35.896851 2.25704699,36.1471536 2.61892181,36.0940427 C2.98079663,36.0409318 3.23109922,35.7045192 3.17798829,35.3426444 C2.40004159,30.0420527 8.38005162,22.2377494 17.6333872,16.8953336 C21.424971,14.7062617 25.3655808,13.1553903 29.0503881,12.3659042 C29.4080231,12.2892794 29.6358268,11.9372422 29.559202,11.5796073 C29.4825771,11.2219723 29.1305399,10.9941685 28.7729049,11.0707934 Z"/>
    <path d="M13.1053499 39.6738308C15.3163366 45.847701 18.9335091 49.6489149 23.0008948 49.6489149 25.9673153 49.6489149 28.7118359 47.626797 30.851997 44.0667086 31.0404405 43.7532391 30.9390868 43.3463579 30.6256172 43.1579146 30.3121476 42.9694712 29.9052666 43.0708248 29.7168231 43.3842944 27.7934636 46.5837404 25.4309366 48.3244116 23.0008948 48.3244116 19.6222193 48.3244116 16.3960206 44.9340642 14.3523037 39.2272715 14.2289898 38.8829348 13.849884 38.7037603 13.5055472 38.8270742 13.1612104 38.9503881 12.982036 39.329494 13.1053499 39.6738308zM33.301094 38.466153C34.4456795 34.8084911 35.0604132 30.5890416 35.0604132 26.1921295 35.0604132 15.2205809 31.2204221 5.76269344 25.7508624 3.33404268 25.4165831 3.18561253 25.0252698 3.33627301 24.8768396 3.67055228 24.7284095 4.00483159 24.87907 4.3961449 25.2133492 4.54457507 30.0915353 6.71063791 33.7359099 15.6867225 33.7359099 26.1921295 33.7359099 30.4578502 33.1405877 34.5440609 32.0370364 38.0705937 31.9278057 38.4196536 32.1222257 38.7911715 32.4712856 38.900402 32.8203455 39.0096328 33.1918636 38.8152129 33.301094 38.466153zM45.7738444 37.8173417C45.7738444 36.0667924 44.3547434 34.6476914 42.604194 34.6476914 40.8536444 34.6476914 39.4345434 36.0667924 39.4345434 37.8173417 39.4345434 39.5678914 40.8536444 40.9869921 42.604194 40.9869921 44.3547434 40.9869921 45.7738444 39.5678914 45.7738444 37.8173417zM44.4493411 37.8173417C44.4493411 38.8363884 43.6232404 39.6624887 42.604194 39.6624887 41.5851474 39.6624887 40.7590467 38.8363884 40.7590467 37.8173417 40.7590467 36.7982954 41.5851474 35.9721947 42.604194 35.9721947 43.6232404 35.9721947 44.4493411 36.7982954 44.4493411 37.8173417zM3.35200735 40.9869921C5.10255692 40.9869921 6.52165772 39.5678914 6.52165772 37.8173417 6.52165772 36.0667924 5.10255692 34.6476914 3.35200735 34.6476914 1.60145778 34.6476914.182356966 36.0667924.182356966 37.8173417.182356966 39.5678914 1.60145778 40.9869921 3.35200735 40.9869921zM3.35200735 39.6624887C2.33296076 39.6624887 1.50686028 38.8363884 1.50686028 37.8173417 1.50686028 36.7982954 2.33296076 35.9721947 3.35200735 35.9721947 4.37105394 35.9721947 5.1971544 36.7982954 5.1971544 37.8173417 5.1971544 38.8363884 4.37105394 39.6624887 3.35200735 39.6624887z"/>
    <path d="M23.0008948 6.56724609C24.7514444 6.56724609 26.1705452 5.14814526 26.1705452 3.39759573 26.1705452 1.64704615 24.7514444.227945338 23.0008948.227945338 21.2503452.227945338 19.8312444 1.64704615 19.8312444 3.39759573 19.8312444 5.14814526 21.2503452 6.56724609 23.0008948 6.56724609zM23.0008948 5.24274278C21.9818482 5.24274278 21.1557477 4.41664228 21.1557477 3.39759573 21.1557477 2.37854913 21.9818482 1.55244865 23.0008948 1.55244865 24.0199414 1.55244865 24.8460419 2.37854913 24.8460419 3.39759573 24.8460419 4.41664228 24.0199414 5.24274278 23.0008948 5.24274278zM23.4850352 28.4336682C22.2470065 28.7011662 21.0272995 27.9143767 20.7592781 26.676348 20.4923036 25.4383192 21.2785696 24.2186123 22.5165984 23.9505908 23.7546271 23.6830929 24.9743341 24.4698824 25.2423555 25.7079111 25.5098535 26.9459398 24.723064 28.1656468 23.4850352 28.4336682z"/>
  </g>
</svg>
