<svg xmlns="http://www.w3.org/2000/svg" width="134" height="50" viewBox="0 0 134 50">
  <g fill="#FFF">
    <polygon points="98.196 41.045 102.059 31.343 113.214 31.343 107.92 16.627 114.541 0 133.505 50 119.52 50 116.279 41.045"/>
    <polygon points="86.212 50 106.443 0 93.031 0 79.191 32.311 69.35 0 59.041 0 48.474 32.311 41.022 17.588 34.278 38.29 41.125 50 54.325 50 63.874 21.024 72.978 50"/>
    <path d="M12.7453596,32.8358409 L21.015736,32.8358409 C23.5209828,32.8358409 25.7518102,32.557516 27.7082184,32.0008663 L29.8470487,25.4418975 L35.8247423,7.11055644 C35.3692677,6.39195312 34.8492721,5.71251666 34.2647556,5.0723355 C31.1955651,1.69073966 26.7050671,0 20.7931248,0 L0,0 L0,50 L12.7453596,50 L12.7453596,32.8358409 Z M23.6924692,11.5030001 C24.8913023,12.7039946 25.4906505,14.3111488 25.4906505,16.3245987 C25.4906505,18.3534923 24.9634784,19.9626194 23.9092024,21.1519802 C22.7534289,22.47353 20.6252609,23.1342709 17.5248351,23.1342709 L12.7453596,23.1342709 L12.7453596,9.70140629 L17.5599663,9.70140629 C20.4495368,9.70140629 22.4937045,10.3019376 23.6924692,11.5030001 Z"/>
  </g>
</svg>
