<svg xmlns="http://www.w3.org/2000/svg" width="40" height="44" viewBox="0 0 40 44">
  <path fill="#FFF" d="M38.2340183 33.6267123L20.8196347 43.4783105 20.8196347 35.8070776 31.6700913 29.836758 38.2340183 33.6267123zM39.4269406 32.5479452L39.4269406 11.9486301 33.0570776 15.630137 33.0570776 28.8721461 39.4269406 32.5479452zM1.87557078 33.6267123L19.2899543 43.4783105 19.2899543 35.8070776 8.43378995 29.836758 1.87557078 33.6267123zM.682648402 32.5479452L.682648402 11.9486301 7.05251142 15.630137 7.05251142 28.8721461.682648402 32.5479452zM1.4303653 10.6130137L19.2899543.510273973 19.2899543 7.92465753 7.84589041 14.2203196 7.75456621 14.2716895 1.4303653 10.6130137zM38.6792237 10.6130137L20.8196347.510273973 20.8196347 7.92465753 32.2636986 14.2146119 32.3550228 14.2659817 38.6792237 10.6130137zM19.2899543 34.0605023L8.58219178 28.1700913 8.58219178 16.5091324 19.2899543 22.6906393 19.2899543 34.0605023zM20.8196347 34.0605023L31.5273973 28.1757991 31.5273973 16.5091324 20.8196347 22.6906393 20.8196347 34.0605023zM9.30707763 15.1621005L20.0547945 9.25456621 30.8025114 15.1621005 20.0547945 21.3664384 9.30707763 15.1621005z"/>
</svg>
