<svg xmlns="http://www.w3.org/2000/svg" width="227" height="202" viewBox="0 0 227 202">
  <g fill="#53C1DE">
    <path d="M186.024553,65.6741178 C210.428813,74.0752616 226.199459,87.234828 226.199459,100.842444 C226.199459,115.032848 209.345691,128.907526 183.44203,137.490061 C182.073345,137.943742 180.669668,138.380128 179.239849,138.802841 C179.75024,140.854058 180.204725,142.86948 180.595261,144.842269 C185.708827,170.673131 181.770086,191.904037 169.650608,198.920007 C157.916437,205.713157 138.949914,199.040264 119.746495,182.515092 C117.718604,180.769546 115.679856,178.908569 113.637888,176.942216 C112.062473,178.464943 110.489873,179.917687 108.922903,181.287579 C89.097282,198.617552 68.7371375,205.808478 56.6055931,198.812619 C44.8605624,192.038372 41.1699796,172.27469 45.895824,147.384572 C46.3941493,144.758611 46.9877958,142.066288 47.6703284,139.318862 C45.5676292,138.715563 43.527271,138.080088 41.5609175,137.408012 C16.6438523,128.891438 0.2429599,114.845826 0.2429599,100.842444 C0.2429599,87.283896 15.5209112,74.2124116 39.443337,65.872 C42.1171595,64.9401037 44.9116418,64.0641131 47.8062718,63.2424195 C47.1736119,60.7021273 46.6141524,58.2036638 46.135535,55.7570841 C41.1792302,30.4273621 44.6667022,10.1854643 56.4431045,3.3681823 C68.7242671,-3.7414988 89.176918,3.8934548 109.581707,22.0109348 C110.826916,23.1165813 112.075343,24.2725027 113.325782,25.4686441 C115.202444,23.6607573 117.079912,21.9357235 118.952151,20.3064132 C138.421826,3.3625515 157.699651,-3.7250086 169.487315,3.0725656 C181.780544,10.1617345 185.380632,31.6934862 179.87452,58.4208515 C179.539085,60.048553 179.161823,61.7044085 178.750774,63.3819828 C181.251651,64.1039308 183.680534,64.8673056 186.024553,65.6741178 Z M180.406228,128.327554 C202.772142,120.916625 216.546671,109.577414 216.546671,100.842444 C216.546671,92.641998 203.792119,81.9993967 182.882571,74.8012318 C180.720748,74.0567605 178.477279,73.3513024 176.165838,72.6824446 C173.386237,81.6768327 169.675947,91.180405 165.168899,100.889502 C169.891928,110.835494 173.751435,120.46214 176.611073,129.515249 C177.902938,129.131953 179.170671,128.73659 180.406228,128.327554 Z M171.125876,146.71692 C170.773147,144.93397 170.363708,143.110397 169.902787,141.251029 C160.544007,143.41446 150.223968,144.999127 139.300632,145.968427 C133.090269,154.958794 126.72707,163.053863 120.360251,170.017143 C122.262655,171.847956 124.159026,173.577816 126.041722,175.197876 C142.464736,189.330363 157.692813,194.688063 164.813756,190.566322 C168.160056,188.629329 170.866457,183.79288 172.212216,176.538809 C173.710007,168.46586 173.387041,158.138985 171.125876,146.71692 Z M77.2766379,189.854027 C85.018979,187.119472 93.804223,181.682539 102.570966,174.019431 C103.998774,172.771004 105.434627,171.446158 106.87611,170.054548 C100.278429,162.974228 93.731425,154.888007 87.479233,146.090696 C76.5297533,145.203041 66.2853291,143.730187 57.0291092,141.683394 C56.3940362,144.242992 55.8430228,146.747085 55.3800911,149.184817 C51.3383881,170.470825 54.301392,186.339205 61.4287698,190.450086 C64.7782875,192.381449 70.3193904,192.311064 77.2766379,189.854027 Z M44.6827903,128.274061 C46.4749914,128.886209 48.3375774,129.467789 50.2600911,130.020411 C53.1153056,120.715124 56.8770778,110.945696 61.4110731,101.077329 C56.9349945,91.353351 53.2259104,81.7371626 50.3984478,72.5396638 C47.7016999,73.3058539 45.1030888,74.1215145 42.6207133,74.9870479 C22.1620299,82.1200565 9.8953464,92.614649 9.8953464,100.842444 C9.8953464,104.708789 12.7248202,109.473647 18.3290683,114.273094 C24.5659765,119.613901 33.6649364,124.508267 44.6827903,128.274061 Z M55.6085405,53.9033464 C56.0529709,56.1753716 56.5738193,58.4992804 57.1618351,60.8646158 C66.5145828,58.7458288 76.6870133,57.1635758 87.31393,56.1785891 C93.510618,47.4331626 99.997694,39.4076732 106.562797,32.3583221 C105.428996,31.2756009 104.298413,30.2290778 103.172255,29.2292097 C85.554306,13.585659 68.8384918,7.3459356 61.2791516,11.7222687 C54.182341,15.8303347 51.3621178,32.2014643 55.6085405,53.9033464 Z M153.075965,77.970564 C155.35885,81.9141304 157.526706,85.8375868 159.576314,89.728867 C162.43354,83.0390825 164.860813,76.5133951 166.808264,70.2720629 C160.321589,68.7915664 153.414216,67.5817502 146.204789,66.6703661 C148.544785,70.3380235 150.840139,74.1086441 153.075965,77.970564 Z M113.328999,39.2568484 C108.80707,44.1359308 104.309675,49.5141429 99.919667,55.3030007 C104.311686,55.097879 108.752773,54.9916983 113.22121,54.9916983 C117.732279,54.9916983 122.206347,55.1002922 126.625716,55.3090337 C122.240132,49.465879 117.781348,44.0804274 113.328999,39.2568484 Z M73.3274407,78.0373291 L73.3274407,78.0365247 C75.5668876,74.1532883 77.8811438,70.3549159 80.254121,66.6534737 C73.0905452,67.5475633 66.2157486,68.7272144 59.7688924,70.1699041 C61.7332349,76.4997203 64.1379858,83.0551705 66.9489584,89.721628 C68.9663912,85.8122483 71.0940267,81.9101084 73.3274407,78.0373291 Z M80.4604493,135.719981 C78.0263378,131.942925 75.6549694,128.069744 73.3660518,124.115721 L73.3656497,124.115721 C71.1185609,120.234495 68.9824792,116.330746 66.9598177,112.424182 C64.0893197,119.234225 61.6314784,125.92964 59.6357643,132.372474 C66.0810118,133.775347 73.0591736,134.894265 80.4604493,135.719981 Z M113.59606,163.108562 C118.018244,158.239937 122.460939,152.771231 126.861003,146.792132 C122.379695,146.991623 117.826797,147.095391 113.22121,147.095391 C108.738293,147.095391 104.327371,147.008515 100.000911,146.838787 C104.457684,152.712107 109.02104,158.172367 113.59606,163.108562 Z M159.668418,112.077084 C157.601917,116.060469 155.416365,120.05793 153.114576,124.049357 C150.839334,127.994532 148.523872,131.829907 146.178244,135.547036 C153.631001,134.652544 160.704484,133.44876 167.255912,131.954187 C165.234457,125.621153 162.688534,118.960729 159.668418,112.077084 Z M144.75325,119.226985 C148.280541,113.109933 151.5279,106.98564 154.462347,100.936962 C151.519051,94.990441 148.264453,88.927284 144.721477,82.8074156 C141.218319,76.7555192 137.570771,70.9393119 133.834337,65.4239498 C127.116399,64.9115475 120.216666,64.6444871 113.22121,64.6444871 L113.220808,64.6444871 C106.256723,64.6444871 99.365838,64.9095366 92.645888,65.4175145 C88.851538,70.9734988 85.179054,76.8086096 81.6895711,82.8597015 L81.6903755,82.8584949 C78.2101429,88.893499 74.9969709,94.997279 72.0786112,101.074112 C74.9977754,107.136867 78.2193935,113.23381 81.7197361,119.279673 L81.7189317,119.279673 C85.228525,125.342027 88.933587,131.205694 92.763331,136.796669 C99.34975,137.224207 106.189556,137.442602 113.22121,137.442602 C120.28142,137.442602 127.208502,137.195651 133.913571,136.71623 C137.594903,131.197649 141.221134,125.351277 144.75325,119.226985 Z M164.665747,11.4350982 C157.562099,7.338696 141.970834,13.0704415 125.289206,27.5878335 C123.562564,29.0908531 121.828682,30.6835633 120.092386,32.3538978 C126.550504,39.3127541 132.98449,47.3507117 139.193245,56.1922639 C149.851129,57.192132 160.030799,58.8017345 169.405266,60.9647635 C169.776095,59.4448515 170.117561,57.9450495 170.42082,56.472597 C175.174818,33.3963991 172.232327,15.7985609 164.665747,11.4350982 Z"/>
    <path d="M113.22121,80.6653008 C124.36455,80.6653008 133.398353,89.698702 133.398353,100.842444 C133.398353,111.985784 124.36455,121.019589 113.22121,121.019589 C102.07787,121.019589 93.044066,111.985784 93.044066,100.842444 C93.044066,89.698702 102.07787,80.6653008 113.22121,80.6653008"/>
  </g>
</svg>
