<svg xmlns="http://www.w3.org/2000/svg" width="392" height="350" viewBox="0 0 392 350">
  <path fill="#FFF" d="M11.7843261,0.165017154 L141.451,23.342 L135.151226,129.736417 C134.954226,133.068417 138.014226,135.654417 141.266226,134.904417 L179.176226,126.155417 C182.723226,125.337417 185.928226,128.461417 185.199226,132.028417 L173.936226,187.181417 C173.178226,190.893417 176.663226,194.067417 180.288226,192.966417 L203.703226,185.852417 C207.333226,184.750417 210.821226,187.933417 210.053226,191.648417 L192.154226,278.281417 C191.034226,283.700417 198.242226,286.655417 201.248226,282.009417 L203.256226,278.906417 L314.210226,57.4784172 C316.068226,53.7709172 312.864226,49.5434172 308.792226,50.3292172 L269.770226,57.8604172 C266.103226,58.5674172 262.983226,55.1524172 264.018226,51.5647172 L273.224,19.651 L379.875226,0.212217154 C388.195226,-1.30418285 394.524226,7.54981715 390.397226,14.9310172 L206.399226,343.951417 C202.600226,350.744417 192.840226,350.784417 188.984226,344.024417 L1.3379261,14.9627172 C-2.8629039,7.59601715 3.4364261,-1.32708285 11.7843261,0.165017154 Z" transform="translate(.244 .594)"/>
</svg>
